<svg width="17" height="17" viewBox="0 0 17 17" fill="none" xmlns="http://www.w3.org/2000/svg">
<path d="M6.76086 6.68359C6.93719 6.18234 7.28522 5.75967 7.74333 5.49044C8.20143 5.22121 8.74003 5.1228 9.26374 5.21263C9.78745 5.30246 10.2625 5.57474 10.6047 5.98124C10.9469 6.38774 11.1342 6.90224 11.1334 7.43359C11.1334 8.93359 8.88336 9.68359 8.88336 9.68359M8.94336 12.6836H8.95086M16.4434 8.93359C16.4434 13.0757 13.0855 16.4336 8.94336 16.4336C4.80122 16.4336 1.44336 13.0757 1.44336 8.93359C1.44336 4.79146 4.80122 1.43359 8.94336 1.43359C13.0855 1.43359 16.4434 4.79146 16.4434 8.93359Z" stroke="#F3F3F3" stroke-linecap="round" stroke-linejoin="round"/>
</svg>
